<?xml version="1.0"?><svg width="8660.19431" height="6920.802810000001" xmlns="http://www.w3.org/2000/svg">
 <title>cloud</title>

 <metadata id="metadata3228">image/svg+xml</metadata>
 <g>
  <title>Layer 1</title>
  <g id="layer1">
   <g id="g6444">
    <path fill="rgba(255,255,255,.2)" fill-rule="nonzero" stroke="#9db1ee" stroke-width="10" stroke-miterlimit="4" stroke-dashoffset="0" d="m4607.161621,289.452667c-801.692871,2.702606 -1585.489258,606.28006 -1834.602539,1468.263153c-362.601318,-207.247559 -849.660767,32.501587 -967.348755,468.55957c-19.280029,66.123535 -31.93689,135.447021 -35.070068,205.046143c-568.898193,-112.921143 -1241.720154,96.915771 -1546.735535,681.840576c-204.009081,381.621582 -104.856216,899.266113 185.57901,1187.457031c470.992096,504.860352 1242.15506,558.189941 1806.838287,258.572266c183.203857,551.447754 777.601563,863.42334 1272.020508,660.430176c157.462402,-57.418457 300.925537,-171.179199 414.995605,-298.099609c424.048096,230.549316 960.883057,189.583496 1343.621338,-122.698242c613.919922,694.91748 1733.711426,666.633789 2310.970703,-69.995605c68.941895,-53.064941 88.631836,-208.274902 189.23291,-172.930664c466.306641,36.469238 905.393555,-433.974121 867.984375,-965.117188c-15.25293,-547.058838 -516.986328,-966.197754 -987.807129,-853.947998c-97.105957,45.350098 -134.304199,-116.460205 -214.07373,-157.284424c-225.774902,-223.560791 -525.463867,-345.375732 -806.61084,-406.798584c-85.687012,-953.937622 -817.773438,-1734.364594 -1650.242188,-1858.260468c-115.046387,-19.637268 -232.097656,-28.073364 -348.751953,-25.036133z" id="path6438"/>
   </g>
  </g>
 </g>
</svg>